<svg version="1.2" baseProfile="tiny" id="EdgeSVG_V0ELy" x="0px" y="0px" width="43.52px" height="153.266px" viewBox="0 0 43.52 153.266" xmlns:xlink="http://www.w3.org/1999/xlink" xmlns="http://www.w3.org/2000/svg">
  <linearGradient id="SVGID_101_" gradientUnits="userSpaceOnUse" x1="21.7583" y1="28.7803" x2="21.7583" y2="33.939">
    <stop offset="0.0061" style="stop-color:#FFFFFF;stop-opacity:0.35"/>
    <stop offset="0.1098" style="stop-color:#FFFFFF;stop-opacity:0.1"/>
    <stop offset="1" style="stop-color:#FFFFFF;stop-opacity:0"/>
  </linearGradient>
  <path style="fill:url(#SVGID_101_);" d="M34.809,29.381c0-0.362,0-0.601-0.241-0.601H8.95c-0.242,0-0.242,0.239-0.242,0.601v3.958&#xD;&#xA;&#x9;&#x9;c0,0.362,0,0.6,0.242,0.6h25.618c0.241,0,0.241-0.238,0.241-0.6V29.381z"/>
  <radialGradient id="SVGID_102_" cx="21.8188" cy="11.0522" r="7.8809" gradientUnits="userSpaceOnUse">
    <stop offset="0.0305" style="stop-color:#FFFFFF;stop-opacity:0.9"/>
    <stop offset="0.3841" style="stop-color:#FFFFFF;stop-opacity:0.4"/>
    <stop offset="1" style="stop-color:#FFFFFF;stop-opacity:0"/>
  </radialGradient>
  <path style="fill:url(#SVGID_102_);" d="M34.309,24.852c0,0.132-0.108,0.24-0.24,0.24H9.449c-0.132,0-0.24-0.108-0.24-0.24V8.532&#xD;&#xA;&#x9;&#x9;c0-0.132,0.108-0.24,0.24-0.24h24.62c0.132,0,0.24,0.108,0.24,0.24V24.852z"/>
  <radialGradient id="SVGID_103_" cx="21.6987" cy="18.8525" r="6.8949" gradientUnits="userSpaceOnUse">
    <stop offset="0.0305" style="stop-color:#FFFFFF;stop-opacity:0.9"/>
    <stop offset="0.3841" style="stop-color:#FFFFFF;stop-opacity:0.4"/>
    <stop offset="1" style="stop-color:#FFFFFF;stop-opacity:0"/>
  </radialGradient>
  <path style="fill:url(#SVGID_103_);" d="M34.309,24.852c0,0.132-0.108,0.24-0.24,0.24H9.449c-0.132,0-0.24-0.108-0.24-0.24V8.532&#xD;&#xA;&#x9;&#x9;c0-0.132,0.108-0.24,0.24-0.24h24.62c0.132,0,0.24,0.108,0.24,0.24V24.852z"/>
  <radialGradient id="SVGID_104_" cx="21.7588" cy="14.3525" r="12.0551" gradientUnits="userSpaceOnUse">
    <stop offset="0.0305" style="stop-color:#FFFFFF;stop-opacity:0.9"/>
    <stop offset="0.3841" style="stop-color:#FFFFFF;stop-opacity:0.4"/>
    <stop offset="1" style="stop-color:#FFFFFF;stop-opacity:0"/>
  </radialGradient>
  <path style="fill:url(#SVGID_104_);" d="M34.309,24.852c0,0.132-0.108,0.24-0.24,0.24H9.449c-0.132,0-0.24-0.108-0.24-0.24V8.532&#xD;&#xA;&#x9;&#x9;c0-0.132,0.108-0.24,0.24-0.24h24.62c0.132,0,0.24,0.108,0.24,0.24V24.852z"/>
  <radialGradient id="SVGID_105_" cx="21.7588" cy="16.6924" r="14.575" gradientUnits="userSpaceOnUse">
    <stop offset="0" style="stop-color:#FFFFFF;stop-opacity:0.4"/>
    <stop offset="1" style="stop-color:#FFFFFF;stop-opacity:0"/>
  </radialGradient>
  <path style="fill:url(#SVGID_105_);" d="M34.309,24.852c0,0.132-0.108,0.24-0.24,0.24H9.449c-0.132,0-0.24-0.108-0.24-0.24V8.532&#xD;&#xA;&#x9;&#x9;c0-0.132,0.108-0.24,0.24-0.24h24.62c0.132,0,0.24,0.108,0.24,0.24V24.852z"/>
</svg>