<svg version="1.2" baseProfile="tiny" id="EdgeSVG_V0ELy" x="0px" y="0px" width="43.52px" height="153.266px" viewBox="0 0 43.52 153.266" xmlns:xlink="http://www.w3.org/1999/xlink" xmlns="http://www.w3.org/2000/svg">
  <linearGradient id="SVGID_1_" gradientUnits="userSpaceOnUse" x1="7.7021" y1="76.748" x2="35.8125" y2="76.748">
    <stop offset="0" style="stop-color:#000000;stop-opacity:0.5"/>
    <stop offset="1" style="stop-color:#000000;stop-opacity:0.5"/>
  </linearGradient>
  <path style="fill:url(#SVGID_1_);" d="M28.523,144.894c-0.087-0.016-0.147-0.031-0.188-0.045c-0.003-0.038-0.006-0.093-0.006-0.171&#xD;&#xA;&#x9;&#x9;c0-0.538-0.142-0.885-0.33-1.108c-0.005-0.006-0.011-0.009-0.017-0.015c-0.057-0.065-0.117-0.123-0.18-0.168V94.394h4.32h0.003&#xD;&#xA;&#x9;&#x9;c0.153,0,0.288-0.004,0.409-0.012c0.021-0.001,0.038-0.008,0.059-0.01c1.173-0.101,1.591-0.628,2.035-1.905&#xD;&#xA;&#x9;&#x9;c0.009-0.021,0.016-0.037,0.025-0.06c0.147-0.364,0.263-0.815,0.357-1.296c0.394-1.713,0.618-3.701,0.618-3.701&#xD;&#xA;&#x9;&#x9;s-0.001-0.161-0.115-0.245c0.171-0.087,0.291-0.226,0.291-0.457v-3.964c0-0.236-0.022-0.438-0.062-0.61&#xD;&#xA;&#x9;&#x9;c0.039-0.177,0.062-0.383,0.062-0.625v-20.22c0-0.295-0.157-0.495-0.369-0.629c0.213-0.126,0.369-0.327,0.369-0.636v-3.963&#xD;&#xA;&#x9;&#x9;c0-0.236-0.022-0.438-0.062-0.61c0.039-0.177,0.062-0.383,0.062-0.625v-20.22c0-0.296-0.158-0.499-0.37-0.638&#xD;&#xA;&#x9;&#x9;c0.213-0.123,0.37-0.321,0.37-0.627v-3.963c0-0.236-0.022-0.438-0.062-0.61c0.039-0.177,0.062-0.383,0.062-0.625V7.981&#xD;&#xA;&#x9;&#x9;c0-0.189-0.067-0.32-0.168-0.417c0.167-0.093,0.177-0.248,0.177-0.248s0-0.086,0-0.225c0.006-0.785-0.017-3.488-0.577-4.875&#xD;&#xA;&#x9;&#x9;c-0.052-0.129-0.097-0.237-0.143-0.344c-0.407-1.065-0.843-1.524-1.912-1.62c-0.023-0.002-0.041-0.009-0.064-0.011&#xD;&#xA;&#x9;&#x9;c-0.121-0.008-0.256-0.012-0.409-0.012H32.69H10.829h-0.017c-0.153,0-0.288,0.004-0.409,0.012&#xD;&#xA;&#x9;&#x9;c-0.023,0.001-0.041,0.009-0.064,0.011c-1.069,0.096-1.505,0.555-1.912,1.62C8.382,1.98,8.337,2.088,8.285,2.217&#xD;&#xA;&#x9;&#x9;c-0.56,1.386-0.583,4.089-0.577,4.875c-0.001,0.139,0,0.225,0,0.225s0.011,0.148,0.169,0.242C7.772,7.656,7.702,7.789,7.702,7.981&#xD;&#xA;&#x9;&#x9;v20.195c0,0.231,0.021,0.43,0.06,0.6c-0.038,0.17-0.06,0.369-0.06,0.601v3.963c0,0.292,0.181,0.476,0.419,0.594&#xD;&#xA;&#x9;&#x9;c-0.238,0.138-0.419,0.352-0.419,0.671V54.86c0,0.231,0.021,0.43,0.06,0.6c-0.038,0.17-0.06,0.369-0.06,0.601v3.963&#xD;&#xA;&#x9;&#x9;c0,0.293,0.183,0.478,0.425,0.599c-0.241,0.133-0.425,0.344-0.425,0.666v20.254c0,0.231,0.021,0.43,0.06,0.6&#xD;&#xA;&#x9;&#x9;c-0.038,0.17-0.06,0.369-0.06,0.601v3.964c0,0.262,0.113,0.409,0.279,0.493c-0.078,0.087-0.085,0.209-0.085,0.209&#xD;&#xA;&#x9;&#x9;s0.224,1.988,0.618,3.701c0.094,0.48,0.21,0.932,0.357,1.296c0.009,0.022,0.016,0.038,0.025,0.06&#xD;&#xA;&#x9;&#x9;c0.444,1.277,0.862,1.805,2.035,1.905c0.021,0.002,0.037,0.009,0.059,0.01c0.121,0.008,0.256,0.012,0.409,0.012H11.4h4.32v48.993&#xD;&#xA;&#x9;&#x9;c-0.063,0.045-0.123,0.103-0.18,0.168c-0.005,0.006-0.011,0.009-0.017,0.015c-0.188,0.224-0.33,0.57-0.33,1.108&#xD;&#xA;&#x9;&#x9;c0,0.078-0.003,0.133-0.006,0.171c-0.041,0.014-0.101,0.029-0.188,0.045c-6.016,1.065-7.289,1.355-7.289,3.217v3.01&#xD;&#xA;&#x9;&#x9;c0,1.243,1.08,2.146,2.567,2.146h0.001h22.966h0.001c1.487,0,2.567-0.902,2.567-2.146v-3.01&#xD;&#xA;&#x9;&#x9;C35.813,146.249,34.539,145.959,28.523,144.894z"/>
</svg>