<svg version="1.2" baseProfile="tiny" viewBox="0 0 43.520 153.266" xmlns:xlink="http://www.w3.org/1999/xlink" xmlns="http://www.w3.org/2000/svg">
<path style="fill:#ffffff;" d="M27.123,144.168c0.18,0,0.21,0.211,0.21,0.51c0,0.66,0.153,1.047,1.02,1.201    c6.27,1.109,6.464,1.377,6.464,2.232c0,0,0,2.348,0,3.01c0,0.664-0.603,1.145-1.567,1.145H10.283c-0.964,0-1.567-0.48-1.567-1.145    c0-0.662,0-3.01,0-3.01c0-0.855,0.193-1.123,6.463-2.232c0.866-0.154,1.02-0.541,1.02-1.201c0-0.299,0.03-0.51,0.21-0.51    S26.943,144.168,27.123,144.168z M32.706,1.17c1.04,0,1.112,0.152,1.6,1.36c0.624,1.544,0.444,4.726,0.444,4.726H8.765    c0,0-0.121-2.999,0.462-4.726c0.417-1.233,0.56-1.36,1.6-1.36S31.666,1.17,32.706,1.17z M34.567,28.782h-0.689    c-0.16,0-0.28-0.049-0.28-0.289c0-0.046,0-0.158,0-0.241s0.061-0.086,0.061-0.086c0.232,0,0.42-0.188,0.42-0.42    s-0.188-0.42-0.42-0.42c0,0-0.061,0-0.061-0.086s0-1.256,0-1.386c0-0.24-0.08-0.4-0.4-0.4c-0.301,0-22.56,0-22.88,0    c-0.32,0-0.4,0.16-0.4,0.4c0,0.13,0,1.303,0,1.386c0,0.084-0.061,0.086-0.061,0.086c-0.232,0-0.42,0.188-0.42,0.42    s0.188,0.42,0.42,0.42c0,0,0.061,0.005,0.061,0.086c0,0.081,0,0.194,0,0.241c0,0.24-0.12,0.289-0.28,0.289H8.949    c-0.242,0-0.242,0.239-0.242,0.601v3.958c0,0.362,0,0.6,0.242,0.6h25.618c0.241,0,0.241-0.238,0.241-0.6v-3.958    C34.808,29.021,34.808,28.782,34.567,28.782z M34.567,55.466h-0.689c-0.16,0-0.28-0.049-0.28-0.289c0-0.046,0-0.158,0-0.241    s0.061-0.086,0.061-0.086c0.232,0,0.42-0.188,0.42-0.42s-0.188-0.42-0.42-0.42c0,0-0.061,0-0.061-0.086s0-1.256,0-1.386    c0-0.24-0.08-0.4-0.4-0.4c-0.301,0-22.56,0-22.88,0c-0.32,0-0.4,0.16-0.4,0.4c0,0.13,0,1.303,0,1.386    c0,0.084-0.061,0.086-0.061,0.086c-0.232,0-0.42,0.188-0.42,0.42s0.188,0.42,0.42,0.42c0,0,0.061,0.005,0.061,0.086    c0,0.081,0,0.194,0,0.241c0,0.24-0.12,0.289-0.28,0.289H8.949c-0.242,0-0.242,0.239-0.242,0.601v3.958c0,0.362,0,0.6,0.242,0.6    h25.618c0.241,0,0.241-0.238,0.241-0.6v-3.958C34.808,55.705,34.808,55.466,34.567,55.466z M34.567,82.149h-0.689    c-0.16,0-0.28-0.049-0.28-0.289c0-0.045,0-0.156,0-0.24c0-0.082,0.061-0.086,0.061-0.086c0.232,0,0.42-0.188,0.42-0.42    s-0.188-0.42-0.42-0.42c0,0-0.061,0-0.061-0.088c0-0.086,0-1.256,0-1.385c0-0.24-0.08-0.4-0.4-0.4c-0.301,0-22.56,0-22.88,0    c-0.32,0-0.4,0.16-0.4,0.4c0,0.129,0,1.303,0,1.385c0,0.084-0.061,0.088-0.061,0.088c-0.232,0-0.42,0.188-0.42,0.42    s0.188,0.42,0.42,0.42c0,0,0.061,0.006,0.061,0.086s0,0.195,0,0.24c0,0.24-0.12,0.289-0.28,0.289H8.949    c-0.242,0-0.242,0.238-0.242,0.602v3.958c0,0.363,0,0.6,0.242,0.6h0.015c0.045,0.58,0.282,3.35,0.838,4.727    c0.488,1.209,0.56,1.361,1.6,1.361s19.686,0,20.726,0s1.184-0.127,1.6-1.361c0.519-1.535,0.783-4.162,0.835-4.727h0.003    c0.241,0,0.241-0.236,0.241-0.6V82.75C34.808,82.387,34.808,82.149,34.567,82.149z"/>
</svg>