<svg version="1.2" baseProfile="tiny" id="EdgeSVG_V0ELy" x="0px" y="0px" width="43.52px" height="153.266px" viewBox="0 0 43.52 153.266" xmlns:xlink="http://www.w3.org/1999/xlink" xmlns="http://www.w3.org/2000/svg">
  <linearGradient id="SVGID_40_" gradientUnits="userSpaceOnUse" x1="8.709" y1="71.3838" x2="34.8101" y2="71.3838">
    <stop offset="0" style="stop-color:#000000;stop-opacity:0.6"/>
    <stop offset="1" style="stop-color:#000000;stop-opacity:0.6"/>
  </linearGradient>
  <path style="fill:url(#SVGID_40_);" d="M34.81,61.225c0-0.361,0-0.6-0.241-0.6H8.951c-0.242,0-0.242,0.239-0.242,0.6v20.319&#xD;&#xA;&#x9;&#x9;c0,0.362,0,0.6,0.242,0.6h25.618c0.241,0,0.241-0.238,0.241-0.6V61.225z"/>
  <linearGradient id="SVGID_41_" gradientUnits="userSpaceOnUse" x1="9.21" y1="71.3838" x2="34.3096" y2="71.3838">
    <stop offset="0" style="stop-color:#000000;stop-opacity:0.05"/>
    <stop offset="0.0699" style="stop-color:#000000;stop-opacity:0.057"/>
    <stop offset="0.5" style="stop-color:#000000;stop-opacity:0.1"/>
    <stop offset="0.9839" style="stop-color:#000000;stop-opacity:0.0516"/>
    <stop offset="1" style="stop-color:#000000;stop-opacity:0.05"/>
  </linearGradient>
  <path style="fill:url(#SVGID_41_);" d="M34.31,61.225c0-0.361,0-0.6-0.232-0.6H9.442c-0.232,0-0.232,0.239-0.232,0.6v20.319&#xD;&#xA;&#x9;&#x9;c0,0.362,0,0.6,0.232,0.6h24.636c0.232,0,0.232-0.238,0.232-0.6V61.225z"/>
  <linearGradient id="SVGID_42_" gradientUnits="userSpaceOnUse" x1="21.7598" y1="61.6548" x2="21.7598" y2="78.4551">
    <stop offset="0" style="stop-color:#000000;stop-opacity:0.25"/>
    <stop offset="0.0305" style="stop-color:#000000;stop-opacity:0"/>
    <stop offset="0.9394" style="stop-color:#000000;stop-opacity:0"/>
    <stop offset="0.9695" style="stop-color:#000000;stop-opacity:0"/>
    <stop offset="1" style="stop-color:#000000;stop-opacity:0.25"/>
  </linearGradient>
  <path style="fill:url(#SVGID_42_);" d="M34.31,78.215c0,0.132-0.108,0.24-0.24,0.24H9.45c-0.132,0-0.24-0.108-0.24-0.24v-16.32&#xD;&#xA;&#x9;&#x9;c0-0.132,0.108-0.24,0.24-0.24h24.62c0.132,0,0.24,0.108,0.24,0.24V78.215z"/>
  <linearGradient id="SVGID_43_" gradientUnits="userSpaceOnUse" x1="9.21" y1="70.0547" x2="34.3096" y2="70.0547">
    <stop offset="0" style="stop-color:#000000;stop-opacity:0.1"/>
    <stop offset="0.01" style="stop-color:#000000;stop-opacity:0"/>
    <stop offset="0.0294" style="stop-color:#000000;stop-opacity:0.0968"/>
    <stop offset="0.03" style="stop-color:#000000;stop-opacity:0.1"/>
    <stop offset="0.04" style="stop-color:#000000;stop-opacity:0"/>
    <stop offset="0.06" style="stop-color:#000000;stop-opacity:0.12"/>
    <stop offset="0.08" style="stop-color:#000000;stop-opacity:0"/>
    <stop offset="0.1" style="stop-color:#000000;stop-opacity:0.15"/>
    <stop offset="0.12" style="stop-color:#000000;stop-opacity:0"/>
    <stop offset="0.15" style="stop-color:#000000;stop-opacity:0.15"/>
    <stop offset="0.17" style="stop-color:#000000;stop-opacity:0"/>
    <stop offset="0.2" style="stop-color:#000000;stop-opacity:0.15"/>
    <stop offset="0.23" style="stop-color:#000000;stop-opacity:0"/>
    <stop offset="0.26" style="stop-color:#000000;stop-opacity:0.2"/>
    <stop offset="0.3" style="stop-color:#000000;stop-opacity:0"/>
    <stop offset="0.34" style="stop-color:#000000;stop-opacity:0.2"/>
    <stop offset="0.38" style="stop-color:#000000;stop-opacity:0"/>
    <stop offset="0.43" style="stop-color:#000000;stop-opacity:0.2"/>
    <stop offset="0.48" style="stop-color:#000000;stop-opacity:0"/>
    <stop offset="0.52" style="stop-color:#000000;stop-opacity:0.17"/>
    <stop offset="0.56" style="stop-color:#000000;stop-opacity:0"/>
    <stop offset="0.6" style="stop-color:#000000;stop-opacity:0.15"/>
    <stop offset="0.63" style="stop-color:#000000;stop-opacity:0"/>
    <stop offset="0.66" style="stop-color:#000000;stop-opacity:0.12"/>
    <stop offset="0.69" style="stop-color:#000000;stop-opacity:0"/>
    <stop offset="0.73" style="stop-color:#000000;stop-opacity:0.1"/>
    <stop offset="0.76" style="stop-color:#000000;stop-opacity:0"/>
    <stop offset="0.79" style="stop-color:#000000;stop-opacity:0.08"/>
    <stop offset="0.82" style="stop-color:#000000;stop-opacity:0"/>
    <stop offset="0.84" style="stop-color:#000000;stop-opacity:0.06"/>
    <stop offset="0.86" style="stop-color:#000000;stop-opacity:0"/>
    <stop offset="0.88" style="stop-color:#000000;stop-opacity:0.06"/>
    <stop offset="0.9" style="stop-color:#000000;stop-opacity:0"/>
    <stop offset="0.92" style="stop-color:#000000;stop-opacity:0.06"/>
    <stop offset="0.94" style="stop-color:#000000;stop-opacity:0"/>
    <stop offset="0.96" style="stop-color:#000000;stop-opacity:0.06"/>
    <stop offset="0.97" style="stop-color:#000000;stop-opacity:0"/>
    <stop offset="0.98" style="stop-color:#000000;stop-opacity:0.06"/>
    <stop offset="0.99" style="stop-color:#000000;stop-opacity:0"/>
  </linearGradient>
  <path style="fill:url(#SVGID_43_);" d="M34.31,78.215c0,0.132-0.108,0.24-0.24,0.24H9.45c-0.132,0-0.24-0.108-0.24-0.24v-16.32&#xD;&#xA;&#x9;&#x9;c0-0.132,0.108-0.24,0.24-0.24h24.62c0.132,0,0.24,0.108,0.24,0.24V78.215z"/>
  <linearGradient id="SVGID_44_" gradientUnits="userSpaceOnUse" x1="21.7598" y1="78.8149" x2="21.7598" y2="81.749">
    <stop offset="0" style="stop-color:#000000;stop-opacity:0.25"/>
    <stop offset="0.122" style="stop-color:#000000;stop-opacity:0"/>
    <stop offset="0.8715" style="stop-color:#000000;stop-opacity:0"/>
    <stop offset="0.8963" style="stop-color:#000000;stop-opacity:0"/>
  </linearGradient>
  <path style="fill:url(#SVGID_44_);" d="M34.31,81.509c0,0.132-0.108,0.24-0.24,0.24H9.45c-0.132,0-0.24-0.108-0.24-0.24v-2.454&#xD;&#xA;&#x9;&#x9;c0-0.132,0.108-0.24,0.24-0.24h24.62c0.132,0,0.24,0.108,0.24,0.24V81.509z"/>
  <linearGradient id="SVGID_45_" gradientUnits="userSpaceOnUse" x1="8.709" y1="80.2822" x2="21.1068" y2="80.2822">
    <stop offset="0" style="stop-color:#000000;stop-opacity:0.1"/>
    <stop offset="0.02" style="stop-color:#000000;stop-opacity:0"/>
    <stop offset="0.04" style="stop-color:#000000;stop-opacity:0.1"/>
    <stop offset="0.06" style="stop-color:#000000;stop-opacity:0"/>
    <stop offset="0.08" style="stop-color:#000000;stop-opacity:0.1"/>
    <stop offset="0.1" style="stop-color:#000000;stop-opacity:0"/>
    <stop offset="0.12" style="stop-color:#000000;stop-opacity:0.1"/>
    <stop offset="0.14" style="stop-color:#000000;stop-opacity:0"/>
    <stop offset="0.16" style="stop-color:#000000;stop-opacity:0.1"/>
    <stop offset="0.18" style="stop-color:#000000;stop-opacity:0"/>
    <stop offset="0.2" style="stop-color:#000000;stop-opacity:0.1"/>
    <stop offset="0.22" style="stop-color:#000000;stop-opacity:0"/>
    <stop offset="0.24" style="stop-color:#000000;stop-opacity:0.1"/>
    <stop offset="0.26" style="stop-color:#000000;stop-opacity:0"/>
    <stop offset="0.28" style="stop-color:#000000;stop-opacity:0.1"/>
    <stop offset="0.3" style="stop-color:#000000;stop-opacity:0"/>
    <stop offset="0.32" style="stop-color:#000000;stop-opacity:0.1"/>
    <stop offset="0.34" style="stop-color:#000000;stop-opacity:0"/>
    <stop offset="0.36" style="stop-color:#000000;stop-opacity:0.1"/>
    <stop offset="0.38" style="stop-color:#000000;stop-opacity:0"/>
    <stop offset="0.4" style="stop-color:#000000;stop-opacity:0.1"/>
    <stop offset="0.42" style="stop-color:#000000;stop-opacity:0"/>
    <stop offset="0.44" style="stop-color:#000000;stop-opacity:0.1"/>
    <stop offset="0.46" style="stop-color:#000000;stop-opacity:0"/>
    <stop offset="0.48" style="stop-color:#000000;stop-opacity:0.1"/>
    <stop offset="0.5" style="stop-color:#000000;stop-opacity:0"/>
    <stop offset="0.7256" style="stop-color:#000000;stop-opacity:0"/>
    <stop offset="0.9085" style="stop-color:#000000;stop-opacity:0"/>
    <stop offset="0.9268" style="stop-color:#000000;stop-opacity:0.1"/>
  </linearGradient>
  <path style="fill:url(#SVGID_45_);" d="M14.924,81.749H8.949c-0.132,0-0.24-0.108-0.24-0.24v-2.454c0-0.132,0.108-0.24,0.24-0.24&#xD;&#xA;&#x9;&#x9;h5.975V81.749z"/>
  <linearGradient id="SVGID_46_" gradientUnits="userSpaceOnUse" x1="34.8101" y1="80.2817" x2="22.4665" y2="80.2817">
    <stop offset="0" style="stop-color:#000000;stop-opacity:0.1"/>
    <stop offset="0.02" style="stop-color:#000000;stop-opacity:0"/>
    <stop offset="0.04" style="stop-color:#000000;stop-opacity:0.1"/>
    <stop offset="0.06" style="stop-color:#000000;stop-opacity:0"/>
    <stop offset="0.08" style="stop-color:#000000;stop-opacity:0.1"/>
    <stop offset="0.1" style="stop-color:#000000;stop-opacity:0"/>
    <stop offset="0.12" style="stop-color:#000000;stop-opacity:0.1"/>
    <stop offset="0.14" style="stop-color:#000000;stop-opacity:0"/>
    <stop offset="0.16" style="stop-color:#000000;stop-opacity:0.1"/>
    <stop offset="0.18" style="stop-color:#000000;stop-opacity:0"/>
    <stop offset="0.2" style="stop-color:#000000;stop-opacity:0.1"/>
    <stop offset="0.22" style="stop-color:#000000;stop-opacity:0"/>
    <stop offset="0.24" style="stop-color:#000000;stop-opacity:0.1"/>
    <stop offset="0.26" style="stop-color:#000000;stop-opacity:0"/>
    <stop offset="0.28" style="stop-color:#000000;stop-opacity:0.1"/>
    <stop offset="0.3" style="stop-color:#000000;stop-opacity:0"/>
    <stop offset="0.32" style="stop-color:#000000;stop-opacity:0.1"/>
    <stop offset="0.34" style="stop-color:#000000;stop-opacity:0"/>
    <stop offset="0.36" style="stop-color:#000000;stop-opacity:0.1"/>
    <stop offset="0.38" style="stop-color:#000000;stop-opacity:0"/>
    <stop offset="0.4" style="stop-color:#000000;stop-opacity:0.1"/>
    <stop offset="0.42" style="stop-color:#000000;stop-opacity:0"/>
    <stop offset="0.44" style="stop-color:#000000;stop-opacity:0.1"/>
    <stop offset="0.46" style="stop-color:#000000;stop-opacity:0"/>
    <stop offset="0.48" style="stop-color:#000000;stop-opacity:0.1"/>
    <stop offset="0.5" style="stop-color:#000000;stop-opacity:0"/>
    <stop offset="0.7256" style="stop-color:#000000;stop-opacity:0"/>
    <stop offset="0.9085" style="stop-color:#000000;stop-opacity:0"/>
    <stop offset="0.9268" style="stop-color:#000000;stop-opacity:0.1"/>
  </linearGradient>
  <path style="fill:url(#SVGID_46_);" d="M28.595,81.749h5.975c0.132,0,0.24-0.108,0.24-0.24v-2.454c0-0.132-0.108-0.24-0.24-0.24&#xD;&#xA;&#x9;&#x9;h-5.975V81.749z"/>
  <linearGradient id="SVGID_47_" gradientUnits="userSpaceOnUse" x1="14.6045" y1="80.2822" x2="29.0267" y2="80.2822">
    <stop offset="0" style="stop-color:#000000;stop-opacity:0.1"/>
    <stop offset="0.02" style="stop-color:#000000;stop-opacity:0"/>
    <stop offset="0.04" style="stop-color:#000000;stop-opacity:0.1"/>
    <stop offset="0.06" style="stop-color:#000000;stop-opacity:0"/>
    <stop offset="0.08" style="stop-color:#000000;stop-opacity:0.1"/>
    <stop offset="0.1" style="stop-color:#000000;stop-opacity:0"/>
    <stop offset="0.12" style="stop-color:#000000;stop-opacity:0.1"/>
    <stop offset="0.14" style="stop-color:#000000;stop-opacity:0"/>
    <stop offset="0.16" style="stop-color:#000000;stop-opacity:0.1"/>
    <stop offset="0.18" style="stop-color:#000000;stop-opacity:0"/>
    <stop offset="0.2" style="stop-color:#000000;stop-opacity:0.1"/>
    <stop offset="0.22" style="stop-color:#000000;stop-opacity:0"/>
    <stop offset="0.24" style="stop-color:#000000;stop-opacity:0.1"/>
    <stop offset="0.26" style="stop-color:#000000;stop-opacity:0"/>
    <stop offset="0.28" style="stop-color:#000000;stop-opacity:0.1"/>
    <stop offset="0.3" style="stop-color:#000000;stop-opacity:0"/>
    <stop offset="0.32" style="stop-color:#000000;stop-opacity:0.1"/>
    <stop offset="0.34" style="stop-color:#000000;stop-opacity:0"/>
    <stop offset="0.36" style="stop-color:#000000;stop-opacity:0.1"/>
    <stop offset="0.38" style="stop-color:#000000;stop-opacity:0"/>
    <stop offset="0.4" style="stop-color:#000000;stop-opacity:0.1"/>
    <stop offset="0.42" style="stop-color:#000000;stop-opacity:0"/>
    <stop offset="0.44" style="stop-color:#000000;stop-opacity:0.1"/>
    <stop offset="0.46" style="stop-color:#000000;stop-opacity:0"/>
    <stop offset="0.48" style="stop-color:#000000;stop-opacity:0.1"/>
    <stop offset="0.5" style="stop-color:#000000;stop-opacity:0"/>
    <stop offset="0.7256" style="stop-color:#000000;stop-opacity:0"/>
    <stop offset="0.9085" style="stop-color:#000000;stop-opacity:0"/>
    <stop offset="0.9268" style="stop-color:#000000;stop-opacity:0.1"/>
  </linearGradient>
  <rect x="14.924" y="78.815" style="fill:url(#SVGID_47_);" width="6.836" height="2.934"/>
  <linearGradient id="SVGID_48_" gradientUnits="userSpaceOnUse" x1="21.48" y1="80.2822" x2="35.7461" y2="80.2822">
    <stop offset="0" style="stop-color:#000000;stop-opacity:0.1"/>
    <stop offset="0.02" style="stop-color:#000000;stop-opacity:0"/>
    <stop offset="0.04" style="stop-color:#000000;stop-opacity:0.1"/>
    <stop offset="0.06" style="stop-color:#000000;stop-opacity:0"/>
    <stop offset="0.08" style="stop-color:#000000;stop-opacity:0.1"/>
    <stop offset="0.1" style="stop-color:#000000;stop-opacity:0"/>
    <stop offset="0.12" style="stop-color:#000000;stop-opacity:0.1"/>
    <stop offset="0.14" style="stop-color:#000000;stop-opacity:0"/>
    <stop offset="0.16" style="stop-color:#000000;stop-opacity:0.1"/>
    <stop offset="0.18" style="stop-color:#000000;stop-opacity:0"/>
    <stop offset="0.2" style="stop-color:#000000;stop-opacity:0.1"/>
    <stop offset="0.22" style="stop-color:#000000;stop-opacity:0"/>
    <stop offset="0.24" style="stop-color:#000000;stop-opacity:0.1"/>
    <stop offset="0.26" style="stop-color:#000000;stop-opacity:0"/>
    <stop offset="0.28" style="stop-color:#000000;stop-opacity:0.1"/>
    <stop offset="0.3" style="stop-color:#000000;stop-opacity:0"/>
    <stop offset="0.32" style="stop-color:#000000;stop-opacity:0.1"/>
    <stop offset="0.34" style="stop-color:#000000;stop-opacity:0"/>
    <stop offset="0.36" style="stop-color:#000000;stop-opacity:0.1"/>
    <stop offset="0.38" style="stop-color:#000000;stop-opacity:0"/>
    <stop offset="0.4" style="stop-color:#000000;stop-opacity:0.1"/>
    <stop offset="0.42" style="stop-color:#000000;stop-opacity:0"/>
    <stop offset="0.44" style="stop-color:#000000;stop-opacity:0.1"/>
    <stop offset="0.46" style="stop-color:#000000;stop-opacity:0"/>
    <stop offset="0.48" style="stop-color:#000000;stop-opacity:0.1"/>
    <stop offset="0.5" style="stop-color:#000000;stop-opacity:0"/>
    <stop offset="0.7256" style="stop-color:#000000;stop-opacity:0"/>
    <stop offset="0.9085" style="stop-color:#000000;stop-opacity:0"/>
    <stop offset="0.9268" style="stop-color:#000000;stop-opacity:0.1"/>
  </linearGradient>
  <rect x="21.76" y="78.815" style="fill:url(#SVGID_48_);" width="6.835" height="2.934"/>
  <linearGradient id="SVGID_49_" gradientUnits="userSpaceOnUse" x1="21.7598" y1="60.6245" x2="21.7598" y2="61.3491">
    <stop offset="0.5061" style="stop-color:#000000;stop-opacity:0"/>
    <stop offset="0.9841" style="stop-color:#000000;stop-opacity:0.242"/>
    <stop offset="1" style="stop-color:#000000;stop-opacity:0.25"/>
  </linearGradient>
  <path style="fill:url(#SVGID_49_);" d="M34.31,61.109c0,0.132-0.108,0.24-0.24,0.24H9.45c-0.132,0-0.24-0.108-0.24-0.24v-0.245&#xD;&#xA;&#x9;&#x9;c0-0.132,0.108-0.24,0.24-0.24h24.62c0.132,0,0.24,0.108,0.24,0.24V61.109z"/>
  <linearGradient id="SVGID_50_" gradientUnits="userSpaceOnUse" x1="21.7593" y1="60.6245" x2="21.7593" y2="82.1436">
    <stop offset="0" style="stop-color:#FFFFFF;stop-opacity:0"/>
    <stop offset="0.005" style="stop-color:#FFFFFF;stop-opacity:0.35"/>
    <stop offset="0.04" style="stop-color:#FFFFFF;stop-opacity:0"/>
    <stop offset="0.1524" style="stop-color:#FFFFFF;stop-opacity:0"/>
    <stop offset="0.8354" style="stop-color:#FFFFFF;stop-opacity:0"/>
    <stop offset="0.846" style="stop-color:#F5F5F5;stop-opacity:0"/>
    <stop offset="0.8643" style="stop-color:#D9D9D9;stop-opacity:0"/>
    <stop offset="0.888" style="stop-color:#ACACAC;stop-opacity:0"/>
    <stop offset="0.9162" style="stop-color:#6E6E6E;stop-opacity:0"/>
    <stop offset="0.9479" style="stop-color:#202020;stop-opacity:0"/>
    <stop offset="0.96" style="stop-color:#000000;stop-opacity:0"/>
    <stop offset="1" style="stop-color:#000000;stop-opacity:0.4"/>
  </linearGradient>
  <path style="fill:url(#SVGID_50_);" d="M34.81,61.225c0-0.361,0-0.6-0.241-0.6H8.951c-0.242,0-0.242,0.239-0.242,0.6v20.319&#xD;&#xA;&#x9;&#x9;c0,0.362,0,0.6,0.242,0.6h25.618c0.241,0,0.241-0.238,0.241-0.6V61.225z"/>
  <linearGradient id="SVGID_51_" gradientUnits="userSpaceOnUse" x1="8.709" y1="71.3408" x2="34.8101" y2="71.3408">
    <stop offset="0" style="stop-color:#FFFFFF;stop-opacity:0.1"/>
    <stop offset="0.1047" style="stop-color:#FFFFFF;stop-opacity:0.0141"/>
    <stop offset="0.122" style="stop-color:#FFFFFF;stop-opacity:0"/>
    <stop offset="0.7659" style="stop-color:#FFFFFF;stop-opacity:0"/>
    <stop offset="0.872" style="stop-color:#FFFFFF;stop-opacity:0"/>
    <stop offset="0.89" style="stop-color:#FFFFFF;stop-opacity:0.0141"/>
    <stop offset="1" style="stop-color:#FFFFFF;stop-opacity:0.1"/>
  </linearGradient>
  <path style="fill:url(#SVGID_51_);" d="M34.81,61.57c0-0.361,0-0.6-0.241-0.6H8.951c-0.242,0-0.242,0.239-0.242,0.6v19.541&#xD;&#xA;&#x9;&#x9;c0,0.361,0,0.601,0.242,0.601h25.618c0.241,0,0.241-0.239,0.241-0.601V61.57z"/>
  <linearGradient id="SVGID_52_" gradientUnits="userSpaceOnUse" x1="17.1987" y1="60.9702" x2="17.1987" y2="81.7119">
    <stop offset="0" style="stop-color:#FFFFFF;stop-opacity:0.12"/>
    <stop offset="0.2622" style="stop-color:#FFFFFF;stop-opacity:0.2"/>
    <stop offset="1" style="stop-color:#FFFFFF;stop-opacity:0.05"/>
  </linearGradient>
  <path style="fill:url(#SVGID_52_);" d="M14.17,60.987c-0.42,0-0.54,0.208-0.42,2.368c0.12,2.16,0.316,8.7,0.188,11.28&#xD;&#xA;&#x9;&#x9;s-0.396,5.986-0.232,6.473c0.164,0.487,0.464,0.604,1.724,0.604s3.91-0.117,4.63-0.117c0.72,0,0.72-1.38,0.66-6.36&#xD;&#xA;&#x9;&#x9;c-0.06-4.98-0.308-11.64-0.304-12.72c0.004-1.08,0.064-1.544-1.196-1.544C17.96,60.97,14.59,60.987,14.17,60.987z"/>
  <linearGradient id="SVGID_53_" gradientUnits="userSpaceOnUse" x1="27.1157" y1="60.9702" x2="27.1157" y2="81.7119">
    <stop offset="0" style="stop-color:#FFFFFF;stop-opacity:0.17"/>
    <stop offset="0.2622" style="stop-color:#FFFFFF;stop-opacity:0.3"/>
    <stop offset="1" style="stop-color:#FFFFFF;stop-opacity:0.07"/>
  </linearGradient>
  <path style="fill:url(#SVGID_53_);" d="M23.931,60.987c-0.42,0-0.54,0.208-0.42,2.368c0.12,2.16,0.214,5.941,0.199,10.26&#xD;&#xA;&#x9;&#x9;c-0.009,2.583-0.148,7.006,0.016,7.493c0.164,0.487,0.464,0.604,1.724,0.604s3.91-0.117,4.63-0.117c0.72,0,0.72-1.38,0.66-6.36&#xD;&#xA;&#x9;&#x9;s-0.308-11.64-0.304-12.72c0.004-1.08,0.064-1.544-1.196-1.544C27.98,60.97,24.351,60.987,23.931,60.987z"/>
  <linearGradient id="SVGID_54_" gradientUnits="userSpaceOnUse" x1="33.3188" y1="60.9702" x2="33.3188" y2="81.7119">
    <stop offset="0" style="stop-color:#FFFFFF;stop-opacity:0.08"/>
    <stop offset="0.2622" style="stop-color:#FFFFFF;stop-opacity:0.15"/>
    <stop offset="1" style="stop-color:#FFFFFF;stop-opacity:0.05"/>
  </linearGradient>
  <path style="fill:url(#SVGID_54_);" d="M32.524,60.987c-0.11,0-0.142,0.208-0.11,2.368c0.031,2.16,0.083,8.7,0.049,11.28&#xD;&#xA;&#x9;&#x9;s-0.104,5.986-0.061,6.473c0.043,0.487,0.122,0.604,0.453,0.604s1.026-0.117,1.215-0.117s0.189-1.38,0.173-6.36&#xD;&#xA;&#x9;&#x9;s-0.081-11.64-0.08-12.72c0.001-1.08,0.017-1.544-0.313-1.544C33.519,60.97,32.634,60.987,32.524,60.987z"/>
</svg>